# xmcd CD database file
#
# Track frame offsets:
#	150
#	13365
#	25192
#	36674
#	49444
#	60302
#	70842
#	81026
#	92981
#	104213
#
# Disc length: 1546 seconds
#
# Revision: 0
# Processed by: cddbd v1.5.2PL0 Copyright (c) Steve Scherf et al.
# Submitted via: CDex 1.51
#
DISCID=8f06080a
DTITLE=Patsy Cline - Hungry For Love
DYEAR=2009
DGENRE=Country
TTITLE0=Life's Railway To Heaven
TTITLE1=Let The Teardrops Fall
TTITLE2=Hungry For Love
TTITLE3=Fingerprints
TTITLE4=I Can See An Angel Walking
TTITLE5=Pick Me Up On Your Way Down
TTITLE6=Turn the Cards Slowly
TTITLE7=If I Could Only Stay Asleep
TTITLE8=I Can't Forget
TTITLE9=I've Loved and Lost Again
EXTD=
EXTT0=
EXTT1=
EXTT2=
EXTT3=
EXTT4=
EXTT5=
EXTT6=
EXTT7=
EXTT8=
EXTT9=
PLAYORDER=
